<?xml version="1.0" encoding="UTF-8"?>
<svg xmlns="http://www.w3.org/2000/svg" xmlns:xlink="http://www.w3.org/1999/xlink" width="1024pt" height="1024pt" viewBox="0 0 1024 1024">
<path fill-rule="nonzero" fill="rgb(94.203186%, 26.000977%, 11.592102%)" fill-opacity="1" d="M 566.5 442.761719 C 568.898438 417.546875 574.25 391.722656 572.882812 366.277344 C 571.539062 341.347656 565.703125 296.679688 533.304688 296.132812 C 488.703125 295.382812 473.515625 338.8125 484.792969 376.34375 C 495.953125 413.480469 528.519531 438.214844 566.5 442.761719 M 576.449219 301.046875 C 598.722656 336.277344 593.078125 392.617188 586.636719 432.847656 C 584.542969 445.914062 584.125 447.457031 598.671875 445.9375 C 629.570312 442.710938 650.273438 435.78125 678.660156 425.730469 C 685.300781 423.375 695.015625 419.558594 698.554688 428.273438 C 703.253906 439.839844 693.417969 442.492188 685.136719 445.949219 C 666.425781 453.753906 643.714844 459.71875 623.957031 462.789062 C 618.640625 463.613281 608.441406 465.730469 603.894531 465.984375 C 599.621094 466.21875 585.101562 463.355469 582.460938 465.046875 L 572.363281 503.976562 C 550.128906 563.992188 517.570312 666.710938 438.480469 665.253906 C 437.78125 665.242188 437.949219 663.378906 436.597656 662.789062 C 434.324219 661.800781 430.984375 662.140625 428.777344 661.1875 C 391.089844 644.933594 385.800781 576.011719 386.164062 540.238281 C 386.207031 536.175781 387.871094 532.3125 387.253906 528.171875 L 366.460938 572.171875 C 351.136719 596.273438 328.300781 628.859375 295.160156 624.199219 C 294.152344 624.058594 294.277344 621.585938 292.789062 621.09375 C 290.792969 620.433594 287.886719 621.601562 286.28125 620.695312 C 285.886719 620.476562 285.402344 618.738281 284.328125 617.976562 C 249.429688 593.144531 260.074219 529.746094 265.960938 492.792969 C 269.613281 469.84375 274.210938 438.097656 282.53125 416.585938 C 284.164062 412.367188 287.753906 408.871094 291.640625 406.707031 C 303.359375 400.171875 328.152344 396.785156 338.695312 406.460938 C 347.171875 414.238281 337.84375 432.863281 335.71875 442.355469 C 326.8125 482.089844 318.863281 525.855469 322.960938 566.640625 C 323.402344 571.035156 326.203125 585.75 331.664062 584.96875 C 336.222656 584.316406 348.289062 564.160156 350.761719 559.671875 C 367.769531 528.828125 382.222656 486.4375 392.210938 452.453125 C 395.949219 439.726562 394.90625 425.394531 410.234375 419.871094 C 422.84375 415.332031 436.308594 416.019531 448.128906 422.453125 C 448.464844 422.632812 452.464844 425.386719 452.65625 425.582031 C 459.855469 433.046875 453.765625 446.304688 452.71875 454.972656 C 447.90625 494.800781 438.574219 586.5625 456.066406 620.152344 C 460.503906 628.667969 465.042969 633.960938 475.65625 630.785156 C 488.925781 626.816406 503.378906 604.667969 510.675781 593.285156 C 525.402344 570.308594 536.316406 545.191406 545.0625 519.90625 C 551.519531 501.222656 557.753906 482.433594 561.238281 462.804688 C 546.855469 459.980469 531.730469 455.828125 518.730469 448.898438 C 473.601562 424.828125 446.148438 362.730469 469.109375 314.269531 C 488.359375 273.648438 549.929688 259.09375 576.449219 301.046875 "/>
<path fill-rule="nonzero" fill="rgb(94.203186%, 26.000977%, 11.592102%)" fill-opacity="1" d="M 791.085938 381.617188 L 790.507812 385.785156 C 767.179688 415.796875 743.824219 445.335938 720.972656 475.445312 C 719.554688 474.488281 719.515625 473.335938 719.347656 471.800781 C 717.390625 454.179688 721.945312 434.023438 717.835938 416.34375 C 717.191406 415.40625 715.140625 415.660156 714.457031 415.019531 C 705.394531 406.5625 694.78125 398.558594 686.324219 390.472656 C 685.203125 389.402344 674.648438 381.839844 676.160156 380.566406 Z M 791.085938 381.617188 "/>
<path fill-rule="nonzero" fill="rgb(94.203186%, 26.000977%, 11.592102%)" fill-opacity="1" d="M 456.027344 719.632812 C 456.027344 725.871094 457.464844 730.605469 460.347656 733.824219 C 463.230469 737.046875 466.890625 738.65625 471.328125 738.65625 C 475.761719 738.65625 479.402344 737.058594 482.25 733.863281 C 485.09375 730.667969 486.515625 725.871094 486.515625 719.480469 C 486.515625 713.164062 485.128906 708.453125 482.363281 705.347656 C 479.59375 702.238281 475.914062 700.683594 471.328125 700.683594 C 466.742188 700.683594 463.042969 702.257812 460.238281 705.402344 C 457.429688 708.546875 456.027344 713.292969 456.027344 719.632812 M 444.558594 720.007812 C 444.558594 714.394531 445.398438 709.683594 447.078125 705.871094 C 448.332031 703.066406 450.042969 700.546875 452.210938 698.316406 C 454.378906 696.085938 456.753906 694.429688 459.335938 693.351562 C 462.765625 691.898438 466.726562 691.171875 471.214844 691.171875 C 479.335938 691.171875 485.832031 693.691406 490.707031 698.730469 C 495.582031 703.765625 498.019531 710.773438 498.019531 719.746094 C 498.019531 728.644531 495.601562 735.605469 490.761719 740.628906 C 485.925781 745.65625 479.460938 748.167969 471.363281 748.167969 C 463.167969 748.167969 456.652344 745.667969 451.816406 740.667969 C 446.976562 735.667969 444.558594 728.78125 444.558594 720.007812 "/>
<path fill-rule="nonzero" fill="rgb(6.307983%, 5.787659%, 5.090332%)" fill-opacity="1" d="M 246.074219 747.226562 L 232.914062 692.113281 L 244.308594 692.113281 L 252.617188 729.972656 L 262.691406 692.113281 L 275.925781 692.113281 L 285.585938 730.609375 L 294.046875 692.113281 L 305.25 692.113281 L 291.867188 747.226562 L 280.058594 747.226562 L 269.082031 706.023438 L 258.140625 747.226562 Z M 246.074219 747.226562 "/>
<path fill-rule="nonzero" fill="rgb(6.307983%, 5.787659%, 5.090332%)" fill-opacity="1" d="M 358.742188 747.226562 L 358.742188 692.113281 L 369.570312 692.113281 L 392.125 728.917969 L 392.125 692.113281 L 402.464844 692.113281 L 402.464844 747.226562 L 391.296875 747.226562 L 369.082031 711.285156 L 369.082031 747.226562 Z M 358.742188 747.226562 "/>
<path fill-rule="nonzero" fill="rgb(6.307983%, 5.787659%, 5.090332%)" fill-opacity="1" d="M 417.199219 701.4375 L 417.199219 737.941406 L 425.507812 737.941406 C 428.613281 737.941406 430.855469 737.765625 432.234375 737.414062 C 434.039062 736.964844 435.539062 736.199219 436.730469 735.121094 C 437.917969 734.042969 438.890625 732.269531 439.640625 729.800781 C 440.394531 727.332031 440.769531 723.96875 440.769531 719.707031 C 440.769531 715.449219 440.394531 712.175781 439.640625 709.894531 C 438.890625 707.613281 437.835938 705.835938 436.484375 704.554688 C 435.132812 703.277344 433.414062 702.414062 431.332031 701.960938 C 429.777344 701.613281 426.734375 701.4375 422.199219 701.4375 Z M 406.070312 692.113281 L 426.410156 692.113281 C 430.996094 692.113281 434.492188 692.464844 436.898438 693.164062 C 440.132812 694.117188 442.898438 695.808594 445.207031 698.242188 C 447.511719 700.671875 449.265625 703.648438 450.46875 707.167969 C 451.671875 710.691406 452.273438 715.035156 452.273438 720.195312 C 452.273438 724.734375 451.710938 728.644531 450.582031 731.925781 C 449.203125 735.9375 447.238281 739.183594 444.679688 741.664062 C 442.75 743.542969 440.144531 745.007812 436.859375 746.0625 C 434.402344 746.839844 431.121094 747.226562 427.011719 747.226562 L 406.070312 747.226562 Z M 406.070312 692.113281 "/>
<path fill-rule="nonzero" fill="rgb(6.307983%, 5.787659%, 5.090332%)" fill-opacity="1" d="M 502.976562 715.421875 L 511.207031 715.421875 C 516.546875 715.421875 519.878906 715.195312 521.207031 714.746094 C 522.535156 714.292969 523.578125 713.519531 524.328125 712.414062 C 525.078125 711.3125 525.457031 709.933594 525.457031 708.277344 C 525.457031 706.421875 524.960938 704.925781 523.972656 703.785156 C 522.980469 702.644531 521.582031 701.925781 519.78125 701.625 C 518.875 701.5 516.167969 701.4375 511.660156 701.4375 L 502.976562 701.4375 Z M 491.847656 747.226562 L 491.847656 692.113281 L 515.269531 692.113281 C 521.15625 692.113281 525.4375 692.609375 528.105469 693.597656 C 530.777344 694.589844 532.914062 696.347656 534.515625 698.878906 C 536.121094 701.410156 536.921875 704.304688 536.921875 707.566406 C 536.921875 711.699219 535.707031 715.117188 533.277344 717.808594 C 530.84375 720.503906 527.210938 722.203125 522.371094 722.902344 C 524.78125 724.308594 526.765625 725.847656 528.332031 727.527344 C 529.898438 729.207031 532.011719 732.1875 534.667969 736.472656 L 541.394531 747.226562 L 528.089844 747.226562 L 520.042969 735.234375 C 517.1875 730.949219 515.230469 728.25 514.179688 727.132812 C 513.125 726.019531 512.011719 725.253906 510.832031 724.839844 C 509.652344 724.425781 507.785156 724.21875 505.230469 724.21875 L 502.976562 724.21875 L 502.976562 747.226562 Z M 491.847656 747.226562 "/>
<path fill-rule="nonzero" fill="rgb(6.307983%, 5.787659%, 5.090332%)" fill-opacity="1" d="M 577.976562 725.421875 L 570.382812 704.96875 L 562.941406 725.421875 Z M 598.46875 747.226562 L 586.359375 747.226562 L 581.550781 734.707031 L 559.519531 734.707031 L 554.96875 747.226562 L 543.164062 747.226562 L 564.632812 692.113281 L 576.398438 692.113281 Z M 598.46875 747.226562 "/>
<path fill-rule="nonzero" fill="rgb(6.307983%, 5.787659%, 5.090332%)" fill-opacity="1" d="M 334.035156 725.421875 L 326.441406 704.96875 L 318.996094 725.421875 Z M 354.523438 747.226562 L 342.417969 747.226562 L 337.605469 734.707031 L 315.574219 734.707031 L 311.027344 747.226562 L 299.222656 747.226562 L 320.6875 692.113281 L 332.457031 692.113281 Z M 354.523438 747.226562 "/>
</svg>
